# xmcd
#
# Track frame offsets: 
#        150
#        16002
#        35321
#        49600
#        62742
#        96532
#        113468
#        131078
#        150509
#        166893
#        182991
#        197495
#        213912
#        229050
#        247367
#        266189
#        285588
#        304602
#        321926
#        336892
#
# Disc length: 4691 seconds
#
# Revision: 2
# Processed by: cddbd v1.5.2PL0 Copyright (c) Steve Scherf et al.
# Submitted via: ExactAudioCopy v0.99pb5
#
DISCID=1b125114
DTITLE=Various Artist - 2008 - Brit Awards 2008 - Brits Hits - The Album Of T
DTITLE=he Year - CD 1
DYEAR=2008
DGENRE=Pop
TTITLE0=Take That - Shine
TTITLE1=Rihanna feat. Jay-Z - Umbrella
TTITLE2=Mika - Grace Kelly
TTITLE3=Kylie Minogue - 2 hearts
TTITLE4=Justin Timberlake - What goes around... comes around
TTITLE5=Girls Aloud - Call the shots
TTITLE6=Plain White T's - Hey there Delilah (Abbey Road Edit)
TTITLE7=Leona Lewis - A moment like this
TTITLE8=Avril Lavigne - Girlfriend
TTITLE9=Sugababes - About you now
TTITLE10=Just Jack - Starz in their eyes
TTITLE11=Nelly Furtado - Say it right
TTITLE12=Beyoncé and Shakira - Beautiful liar
TTITLE13=Sean Kingston - Beautiful girls
TTITLE14=Gwen Stefani feat. Akon - The sweet escape
TTITLE15=Fergie - Big girls don't cry
TTITLE16=50 Cent feat. Justin Timberlake - Ayo technology
TTITLE17=Ne-Yo - Because of you
TTITLE18=Cascada - Everytime we touch
TTITLE19=Robyn with Kleerup - With every heartbeat
EXTD=
EXTT0=
EXTT1=
EXTT2=
EXTT3=
EXTT4=
EXTT5=
EXTT6=
EXTT7=
EXTT8=
EXTT9=
EXTT10=
EXTT11=
EXTT12=
EXTT13=
EXTT14=
EXTT15=
EXTT16=
EXTT17=
EXTT18=
EXTT19=
PLAYORDER=
